Coordinates
version=1
nRows=17
nColumns=33
inDegrees=yes

Units are S.I. units (second, meters, Newtons, ...)
Angles are in degrees.

endheader
time	ground_thorax_rot_x	ground_thorax_rot_y	ground_thorax_rot_z	ground_thorax_tx	ground_thorax_ty	ground_thorax_tz	clav_prot_r	clav_elev_r	scapula_abduction_r	scapula_elevation_r	scapula_upward_rot_r	scapula_winging_r	shoulder_elv_r	plane_of_elev_r	axial_rot_r	elbow_flexion_r	pro_sup_r	wrist_flex_r	wrist_dev_r	clav_prot_l	clav_elev_l	scapula_abduction_l	scapula_elevation_l	scapula_upward_rot_l	scapula_winging_l	shoulder_elv_l	plane_of_elev_l	axial_rot_l	elbow_flexion_l	pro_sup_l	wrist_flex_l	wrist_dev_l	
5.2300	25.767189	31.725123	48.652721	-21.181669	819.838941	-38.240985	13.432245	35.240184	30.239081	45.000000	-45.000000	2434.551548	791.316896	22.425062	-168.857514	3599.184716	166.179029	13.158382	15.482575	-9.439156	-45.000000	-37.762371	45.000000	-45.000000	2620.827601	-3883.182587	26.523409	35.164644	349.448178	44.464978	14.055104	-17.253667	
5.2400	25.641806	31.950415	49.025399	-18.032121	817.852080	-38.001772	13.441234	35.307778	30.199795	45.000000	-45.000000	2434.760516	791.219055	22.393839	-168.812445	3599.242372	166.795383	13.103018	15.398315	-9.682141	-45.000000	-37.551893	45.000000	-45.000000	2620.676915	-3883.366142	26.434944	34.893095	349.407619	44.663873	13.959979	-17.079862	
5.2500	25.519565	32.174484	49.387136	-14.924419	815.887657	-37.759722	13.445753	35.372132	30.155108	45.000000	-45.000000	2434.967516	791.125679	22.361976	-168.758432	3599.306656	167.448330	13.057710	15.307614	-9.921102	-45.000000	-37.342339	45.000000	-45.000000	2620.531498	-3883.549536	26.348036	34.624323	349.365924	44.879333	13.860929	-16.914385	
5.2600	25.399712	32.397043	49.737611	-11.865351	813.947244	-37.517545	13.444582	35.433205	30.103185	45.000000	-45.000000	2435.174670	791.037675	22.328182	-168.693572	3599.376865	168.131061	13.019454	15.211517	-10.155284	-45.000000	-37.135101	45.000000	-45.000000	2620.391628	-3883.731692	26.261543	34.359209	349.322777	45.112930	13.757703	-16.757052	
5.2700	25.281514	32.618155	50.077566	-8.861782	812.032525	-37.278051	13.437890	35.490619	30.042464	45.000000	-45.000000	2435.383113	790.956606	22.291631	-168.615368	3599.450378	168.833282	12.985592	15.110832	-10.383552	-45.000000	-36.930364	45.000000	-45.000000	2620.256774	-3883.912530	26.174065	34.095230	349.278580	45.364877	13.649892	-16.607507	
5.2800	25.165944	32.836285	50.405177	-5.919815	810.145387	-37.043690	13.428041	35.544880	29.973347	45.000000	-45.000000	2435.591737	790.882783	22.253137	-168.521370	3599.525350	169.543707	12.954160	15.006191	-10.607422	-45.000000	-36.728592	45.000000	-45.000000	2620.126677	-3884.091345	26.085526	33.832028	349.232685	45.634514	13.537601	-16.465160	
5.2900	25.051855	33.051607	50.721189	-3.043970	808.287505	-36.816127	13.416705	35.595166	29.895346	45.000000	-45.000000	2435.799792	790.816217	22.212067	-168.409946	3599.599319	170.250974	12.923820	14.897729	-10.826878	-45.000000	-36.528739	45.000000	-45.000000	2620.000456	-3884.268178	25.995949	33.567347	349.186470	45.920048	13.420948	-16.329720	
5.3000	24.939092	33.263087	51.024965	-0.236559	806.459699	-36.596055	13.405483	35.641632	29.809464	45.000000	-45.000000	2436.004644	790.754866	22.169041	-168.278794	3599.671587	170.945893	12.893718	14.785462	-11.042782	-45.000000	-36.330194	45.000000	-45.000000	2619.878323	-3884.442547	25.905790	33.298299	349.140242	46.219747	13.301206	-16.201172	
5.3100	24.825743	33.472002	51.315277	2.502463	804.661388	-36.383283	13.392448	35.685122	29.707481	45.000000	-45.000000	2436.211796	790.705293	22.121568	-168.118828	3599.735770	171.619738	12.862317	14.670193	-11.253353	-45.000000	-36.132972	45.000000	-45.000000	2619.754596	-3884.616240	25.812406	33.011385	349.099899	46.529746	13.177017	-16.078466	
5.3200	24.707214	33.678336	51.598919	5.174979	802.890748	-36.177130	13.381986	35.721127	29.590220	45.000000	-45.000000	2436.416984	790.662924	22.073449	-167.933797	3599.797906	172.263614	12.827325	14.549385	-11.459566	-45.000000	-35.936559	45.000000	-45.000000	2619.632094	-3884.787045	25.715320	32.696506	349.065411	46.847236	13.048537	-15.958986	
5.3300	24.586495	33.877053	51.874236	7.784080	801.145036	-35.976848	13.369211	35.754861	29.470779	45.000000	-45.000000	2436.618436	790.621910	22.019812	-167.724134	3599.857612	172.874176	12.788909	14.427044	-11.662509	-45.000000	-35.738346	45.000000	-45.000000	2619.517720	-3884.958046	25.616198	32.354703	349.040746	47.168280	12.922235	-15.848813	
5.3400	24.462943	34.064737	52.146454	10.332855	799.421730	-35.782035	13.355077	35.785810	29.362047	45.000000	-45.000000	2436.808604	790.572288	21.961178	-167.495632	3599.920118	173.451130	12.747474	14.303969	-11.864151	-45.000000	-35.536970	45.000000	-45.000000	2619.419358	-3885.127568	25.515120	31.987905	349.023327	47.492255	12.802759	-15.749499	
5.3500	24.340899	34.238596	52.408464	12.823649	797.719239	-35.592777	13.334691	35.819927	29.267150	45.000000	-45.000000	2436.990303	790.516246	21.893473	-167.244372	3599.979019	173.996415	12.704119	14.185039	-12.064475	-45.000000	-35.332689	45.000000	-45.000000	2619.336385	-3885.299276	25.413256	31.596132	349.017194	47.817163	12.693516	-15.664625	
5.3600	24.216072	34.400701	52.665875	15.257355	796.037604	-35.409612	13.312753	35.851338	29.179970	45.000000	-45.000000	2437.164344	790.455413	21.820949	-166.975081	3600.037697	174.508130	12.657673	14.067271	-12.262711	-45.000000	-35.127236	45.000000	-45.000000	2619.266138	-3885.469121	25.307906	31.173440	349.020874	48.142507	12.591359	-15.588127	
5.3700	24.092049	34.550565	52.911544	17.634235	794.377564	-35.233095	13.286552	35.883870	29.097391	45.000000	-45.000000	2437.335553	790.394172	21.741362	-166.687820	3600.091001	174.985266	12.608847	13.953676	-12.457709	-45.000000	-34.921239	45.000000	-45.000000	2619.205437	-3885.640097	25.200906	30.720996	349.038349	48.465321	12.497055	-15.520912	
5.3800	23.964214	34.693498	53.147443	19.954028	792.740086	-35.063579	13.258633	35.913004	28.996885	45.000000	-45.000000	2437.514747	790.346441	21.657541	-166.376509	3600.132852	175.423991	12.557420	13.838747	-12.646997	-45.000000	-34.716794	45.000000	-45.000000	2619.139546	-3885.808072	25.083445	30.223626	349.071180	48.782717	12.401345	-15.451518	
5.3900	23.831970	34.831025	53.375446	22.217258	791.124897	-34.900672	13.231560	35.936811	28.876879	45.000000	-45.000000	2437.700283	790.311530	21.572444	-166.045879	3600.168013	175.818171	12.502197	13.723466	-12.829370	-45.000000	-34.514638	45.000000	-45.000000	2619.071962	-3885.976424	24.958926	29.679093	349.122515	49.089650	12.304499	-15.379687	
